<?xml version="1.0" encoding="utf-8"?>
<!-- Generator: Adobe Illustrator 28.2.0, SVG Export Plug-In . SVG Version: 6.00 Build 0)  -->
<svg version="1.1" id="Layer_1" xmlns="http://www.w3.org/2000/svg" xmlns:xlink="http://www.w3.org/1999/xlink" x="0px" y="0px"
	 viewBox="0 0 15.1 18.6" style="enable-background:new 0 0 15.1 18.6;" xml:space="preserve">
<style type="text/css">
	.st0{fill-rule:evenodd;clip-rule:evenodd;fill:#DE554B;}
	.st1{fill-rule:evenodd;clip-rule:evenodd;fill:#FEB447;}
</style>
<g>
	<path class="st0" d="M0,1.8v4.8c0,5.4,2.8,9.9,7.4,11.9l0.2,0.1l0.2-0.1c4.6-2.1,7.4-6.5,7.4-11.9V1.8L7.4,0L0,1.8z"/>
	<path class="st1" d="M12.5,11L12.5,11c-1.4-0.6-2.4-0.1-3.1,0.5c0.3-0.8,0.4-1.6,0.4-1.8c0.1-0.2,0.2-0.3,0.4-0.4
		c0.5-0.1,1.1,0.3,1.2,0.3l0.2,0.1l1-2.5L9.4,4.1L6.9,4.4c-0.1,0-0.1,0-0.2,0C6.2,3.7,5.6,3.2,4.9,2.9l2.7-0.6l5.6,1.3L13.2,7
		C13.2,8.5,13,9.8,12.5,11z M7.6,7.4c0.1,1,0,3.3-3,4.2L3,8.9c0.1-1.2,0.7-2.3,1.5-3.1l0,0c0.7,1,0.7,2,0,2.9L4.5,8.9l0.3,0.2L4.9,9
		c0.8-1,0.8-2.2,0-3.3l0-0.1c0.5-0.4,1.1-0.7,1.7-0.8C7.1,5.5,7.5,6.4,7.6,7.4z M10.2,5.3C9.9,5.6,9.4,6,9.5,7.6c0.1,1,0,1.8,0,2
		l0,0l0,0c0,0-0.1,1.1-0.6,2.1c-0.7,1.3-1.7,2-3.1,2l-1.1-1.9c2.2-0.7,3.4-2.4,3.2-4.5c-0.1-0.9-0.4-1.9-1-2.7l2.4-0.3L10.2,5.3
		C10.2,5.3,10.2,5.3,10.2,5.3z M10.9,7.1c0.3,0,0.6-0.2,0.6-0.6l0.7,0.7l-0.8,1.9c-0.3-0.1-0.8-0.4-1.3-0.2C10.1,9,10,9.1,9.9,9.1
		c0-0.4,0-0.9,0-1.5c-0.1-1.4,0.3-1.7,0.6-2c0,0,0,0,0,0l1,1l-1.2,0C10.3,6.9,10.6,7.1,10.9,7.1z M7.6,16.2C4,14.6,1.9,11.2,1.9,7
		V3.6l2.3-0.5C5,3.3,5.8,3.8,6.4,4.5C4.4,5,2.9,6.8,2.7,8.9l0,0.1l2.9,5.1l0.1,0c0,0,0,0,0.1,0c1.5,0,2.4-0.7,3-1.5l0,0l0.1-0.1
		c0,0,0.3-0.5,1-0.9c0.8-0.5,1.6-0.6,2.5-0.3l0,0C11.5,13.5,9.8,15.2,7.6,16.2z M7.6,1.6L1.3,3.1V7c0,4.5,2.3,8.2,6.2,9.9L7.6,17
		l0.1-0.1c3.9-1.7,6.2-5.4,6.2-9.9l-0.1-3.9L7.6,1.6z"/>
</g>
</svg>
