<svg width="27" height="36" viewBox="0 0 27 36" fill="none" xmlns="http://www.w3.org/2000/svg">
<g id="Symbols/Crests/Ravenclaw">
<path id="Crest-Ravenclaw" fill-rule="evenodd" clip-rule="evenodd" d="M18.6053 29.6244C21.8197 25.8595 22.3231 22.3015 21.8893 19.215C22.3651 19.7786 22.8764 20.0761 23.4191 20.1013C23.443 20.1023 23.4668 20.1028 23.4904 20.1028C23.9338 20.1028 24.3683 19.9105 24.7721 19.547C24.6427 20.8655 24.4698 21.9675 24.2386 22.6599C22.9257 26.5943 20.8684 28.2566 18.6053 29.6244ZM13.5134 32.9803C12.3073 31.8589 10.9665 31.0927 9.66452 30.3486C7.77309 29.2675 5.95437 28.2274 4.49891 26.158C6.14173 27.0846 7.82053 27.4385 9.38825 27.4382C11.8322 27.4382 14.0049 26.5849 15.344 25.7286C18.7641 23.542 20.3335 19.6059 20.3392 15.9432C20.4553 16.2835 20.5669 16.6316 20.671 16.9865L20.6646 16.9898L20.6889 17.0479C21.8247 20.9646 21.9863 25.7508 16.2467 30.997C15.3092 31.5581 14.3768 32.1775 13.5134 32.9803ZM12.3645 8.33557L13.1644 10.1542C13.102 10.1295 13.0407 10.1071 12.983 10.0867C12.9101 10.0613 12.8379 10.0367 12.7692 10.0049C11.7986 9.55638 10.3982 9.6543 9.52842 9.77966L10.1901 8.62126C10.5503 8.52964 11.5502 8.30058 12.3645 8.33557ZM14.9736 25.0827C12.7039 26.5341 7.87678 27.9744 3.61958 24.6805C3.31781 24.0806 3.03916 23.4123 2.78817 22.6599C2.20513 20.9133 1.98917 16.578 1.91885 12.6548L4.50773 10.2323C4.11371 12.7904 4.26674 15.0513 4.96515 16.9659C5.83685 19.3542 7.30947 20.537 8.39165 21.1089C10.7148 22.3367 13.4171 21.8738 14.9624 19.9837C17.1647 17.2891 15.7481 14.1729 15.1431 12.8423C15.0671 12.6754 15.0041 12.5375 14.9643 12.433C14.8339 12.0917 14.6864 11.7831 14.526 11.5062L14.5436 11.4974L13.3468 8.77634L13.8967 9.34219L15.0604 8.08135L13.0531 8.10854L12.9978 7.98243L13.6314 6.68534L17.0519 7.66023C17.7279 9.20149 18.6194 11.3229 18.9267 12.0572L18.9812 12.2253C19.0573 12.4594 19.1426 12.7011 19.232 12.947C20.3571 16.9777 19.1352 22.4216 14.9736 25.0827ZM1.91288 5.92816C2.7319 5.98605 4.11251 6.02708 5.73005 5.8456C8.89196 5.49118 11.5667 4.42844 13.5134 2.75982C15.4601 4.42844 18.1348 5.49118 21.2965 5.8456C22.9143 6.02708 24.2953 5.98631 25.1141 5.92816C25.1456 8.04836 25.1954 13.9045 24.88 18.2677C24.4336 18.9791 23.9261 19.3687 23.4501 19.3468C22.7832 19.3161 22.0774 18.4928 21.4631 17.0291L21.3482 16.7547C21.0321 15.6695 20.65 14.6657 20.3049 13.7593C20.1652 13.3925 20.0312 13.0391 19.9075 12.6983C19.8458 12.4803 19.78 12.2648 19.7056 12.0552C19.7016 12.0431 19.6608 11.9444 19.5931 11.7818L19.5412 11.6225L19.5283 11.6272C19.1495 10.7213 18.2471 8.5825 17.6304 7.18246L17.5601 7.02312L13.2602 5.79752L12.3895 7.58017C11.2763 7.53511 9.9279 7.91092 9.86735 7.92829L9.72839 7.96756L8.07938 10.8552L8.89673 10.6609C8.91938 10.6559 11.2289 10.1177 12.4827 10.6969C12.5718 10.7379 12.6641 10.7709 12.7578 10.8034C12.8824 10.8472 13.0002 10.8885 13.097 10.9529C13.563 11.2638 13.9794 11.8732 14.3007 12.7152C14.345 12.8309 14.4144 12.9842 14.4985 13.169C15.0887 14.4678 16.3173 17.17 14.4208 19.4901C13.09 21.1187 10.7422 21.5068 8.71176 20.4335C4.97873 18.4611 4.55611 13.3867 5.40516 9.29561L5.64019 8.16364L1.90406 11.6595C1.87426 9.21959 1.89596 7.05005 1.91288 5.92816ZM26.5102 4.24226L25.72 4.35377C25.6459 4.36383 18.2568 5.35207 13.998 1.20682L13.5134 0.735107L13.0285 1.20682C8.78016 5.342 1.37989 4.36409 1.30695 4.35377L0.516529 4.24226L0.497221 5.08424C0.484111 5.66696 0.184487 19.4018 1.43924 23.1619C3.17263 28.3561 6.12692 30.0443 8.98396 31.6769C10.4451 32.5119 11.8255 33.3005 13.0078 34.549L13.5134 35.0832L14.0189 34.549C15.2015 33.3005 16.5816 32.5121 18.0428 31.6769C20.8998 30.0443 23.8541 28.3561 25.5873 23.1619C26.8425 19.4018 26.5429 5.66696 26.5295 5.08424L26.5102 4.24226Z" fill="#F9F4F2"/>
</g>
</svg>
