<svg width="364" height="56" viewBox="0 0 364 56" fill="none" xmlns="http://www.w3.org/2000/svg">
<path d="M0 26.5H111.868" stroke="url(#paint0_linear_2667_13153)"/>
<g filter="url(#filter0_d_2667_13153)">
<path d="M110.638 25.9318L119.707 14.5H243.929L254.324 25.9318L243.929 37.3635H119.707L110.638 25.9318Z" fill="#231E4E" fill-opacity="0.5" stroke="#5758FF"/>
<path d="M114.642 26L121.888 17H242.202L250.326 26L242.202 35H121.888L114.642 26Z" fill="#0B163B" stroke="#5758FF"/>
<path d="M142.616 28.16C142.616 28.512 142.544 28.844 142.4 29.156C142.256 29.468 142.052 29.74 141.788 29.972C141.524 30.204 141.212 30.384 140.852 30.512C140.492 30.648 140.096 30.716 139.664 30.716C139.312 30.716 138.98 30.656 138.668 30.536C138.364 30.416 138.072 30.264 137.792 30.08L137.156 30.692L136.964 27.968L137.444 28.568C137.82 29.04 138.184 29.392 138.536 29.624C138.896 29.856 139.28 29.972 139.688 29.972C139.912 29.972 140.116 29.936 140.3 29.864C140.484 29.784 140.644 29.68 140.78 29.552C140.916 29.416 141.02 29.264 141.092 29.096C141.172 28.92 141.212 28.736 141.212 28.544C141.212 28.36 141.188 28.204 141.14 28.076C141.1 27.94 141.032 27.82 140.936 27.716C140.84 27.612 140.716 27.516 140.564 27.428C140.42 27.34 140.244 27.248 140.036 27.152L138.896 26.636C138.552 26.476 138.26 26.316 138.02 26.156C137.78 25.988 137.584 25.808 137.432 25.616C137.288 25.424 137.184 25.216 137.12 24.992C137.056 24.76 137.024 24.508 137.024 24.236C137.024 23.908 137.084 23.604 137.204 23.324C137.332 23.036 137.508 22.784 137.732 22.568C137.956 22.352 138.22 22.184 138.524 22.064C138.836 21.944 139.176 21.884 139.544 21.884C139.904 21.884 140.244 21.944 140.564 22.064C140.892 22.184 141.196 22.336 141.476 22.52L142.112 21.908L142.304 24.632L141.824 24.032C141.448 23.568 141.084 23.22 140.732 22.988C140.388 22.748 140.012 22.628 139.604 22.628C139.236 22.628 138.936 22.744 138.704 22.976C138.472 23.2 138.356 23.472 138.356 23.792C138.356 24.112 138.448 24.392 138.632 24.632C138.816 24.864 139.164 25.096 139.676 25.328L140.792 25.844C141.128 25.996 141.412 26.156 141.644 26.324C141.876 26.484 142.064 26.66 142.208 26.852C142.352 27.036 142.456 27.236 142.52 27.452C142.584 27.668 142.616 27.904 142.616 28.16ZM148.075 30.728C147.411 30.728 146.799 30.62 146.239 30.404C145.687 30.18 145.211 29.872 144.811 29.48C144.411 29.08 144.099 28.612 143.875 28.076C143.651 27.532 143.539 26.944 143.539 26.312C143.539 25.704 143.651 25.132 143.875 24.596C144.099 24.06 144.411 23.592 144.811 23.192C145.211 22.792 145.687 22.476 146.239 22.244C146.799 22.012 147.411 21.896 148.075 21.896C148.739 21.896 149.347 22.008 149.899 22.232C150.451 22.456 150.927 22.764 151.327 23.156C151.727 23.548 152.039 24.012 152.263 24.548C152.487 25.084 152.599 25.672 152.599 26.312C152.599 26.92 152.487 27.492 152.263 28.028C152.039 28.564 151.727 29.032 151.327 29.432C150.927 29.832 150.451 30.148 149.899 30.38C149.347 30.612 148.739 30.728 148.075 30.728ZM148.123 30.02C148.531 30.02 148.903 29.924 149.239 29.732C149.583 29.532 149.879 29.264 150.127 28.928C150.375 28.592 150.567 28.2 150.703 27.752C150.847 27.304 150.919 26.824 150.919 26.312C150.919 25.8 150.847 25.32 150.703 24.872C150.559 24.424 150.355 24.032 150.091 23.696C149.835 23.36 149.527 23.096 149.167 22.904C148.815 22.704 148.427 22.604 148.003 22.604C147.595 22.604 147.219 22.704 146.875 22.904C146.531 23.096 146.235 23.36 145.987 23.696C145.739 24.032 145.543 24.424 145.399 24.872C145.263 25.32 145.195 25.8 145.195 26.312C145.195 26.824 145.267 27.304 145.411 27.752C145.555 28.2 145.755 28.592 146.011 28.928C146.275 29.264 146.583 29.532 146.935 29.732C147.295 29.924 147.691 30.02 148.123 30.02ZM153.687 22.7L153.087 22.1H156.627C157.051 22.1 157.439 22.16 157.791 22.28C158.143 22.4 158.447 22.564 158.703 22.772C158.967 22.98 159.171 23.228 159.315 23.516C159.459 23.796 159.531 24.104 159.531 24.44C159.531 24.968 159.355 25.432 159.003 25.832C158.659 26.224 158.199 26.496 157.623 26.648L158.139 26.828L160.323 29.96L160.767 30.5H158.055L158.595 29.96L156.351 26.78H155.259V29.9L155.859 30.5H153.087L153.687 29.9V22.7ZM155.259 22.808V26.084H156.387C156.619 26.084 156.831 26.044 157.023 25.964C157.215 25.876 157.375 25.756 157.503 25.604C157.639 25.452 157.743 25.276 157.815 25.076C157.887 24.876 157.923 24.664 157.923 24.44C157.923 24.216 157.887 24.004 157.815 23.804C157.743 23.604 157.639 23.432 157.503 23.288C157.375 23.136 157.215 23.02 157.023 22.94C156.831 22.852 156.619 22.808 156.387 22.808H155.259ZM160.775 22.1H168.347L168.467 24.188L167.447 22.856H165.347V29.9L165.947 30.5H163.175L163.775 29.9V22.856H161.675L160.655 24.188L160.775 22.1ZM169.543 22.7L168.943 22.1H174.655L174.835 24.308L173.695 22.856H171.115V25.82H172.651L173.479 25.076V27.308L172.651 26.528H171.115V29.276L170.671 29.744H174.055L175.075 28.412L174.955 30.5H168.943L169.543 29.9V22.7ZM176.257 22.7L175.657 22.1H179.317C179.981 22.1 180.593 22.208 181.153 22.424C181.713 22.632 182.197 22.924 182.605 23.3C183.013 23.668 183.329 24.108 183.553 24.62C183.785 25.132 183.901 25.692 183.901 26.3C183.901 26.908 183.785 27.468 183.553 27.98C183.329 28.492 183.013 28.936 182.605 29.312C182.197 29.68 181.713 29.972 181.153 30.188C180.593 30.396 179.981 30.5 179.317 30.5H175.657L176.257 29.9V22.7ZM177.385 29.804H179.077C179.525 29.804 179.941 29.712 180.325 29.528C180.717 29.344 181.053 29.096 181.333 28.784C181.613 28.464 181.833 28.092 181.993 27.668C182.153 27.236 182.233 26.78 182.233 26.3C182.233 25.82 182.153 25.368 181.993 24.944C181.833 24.52 181.613 24.152 181.333 23.84C181.053 23.52 180.717 23.268 180.325 23.084C179.941 22.9 179.525 22.808 179.077 22.808H177.829V29.336L177.385 29.804ZM187.025 22.1H194.597L194.717 24.188L193.697 22.856H191.597V29.9L192.197 30.5H189.425L190.025 29.9V22.856H187.925L186.905 24.188L187.025 22.1ZM199.614 30.728C198.95 30.728 198.338 30.62 197.778 30.404C197.226 30.18 196.75 29.872 196.35 29.48C195.95 29.08 195.638 28.612 195.414 28.076C195.19 27.532 195.078 26.944 195.078 26.312C195.078 25.704 195.19 25.132 195.414 24.596C195.638 24.06 195.95 23.592 196.35 23.192C196.75 22.792 197.226 22.476 197.778 22.244C198.338 22.012 198.95 21.896 199.614 21.896C200.278 21.896 200.886 22.008 201.438 22.232C201.99 22.456 202.466 22.764 202.866 23.156C203.266 23.548 203.578 24.012 203.802 24.548C204.026 25.084 204.138 25.672 204.138 26.312C204.138 26.92 204.026 27.492 203.802 28.028C203.578 28.564 203.266 29.032 202.866 29.432C202.466 29.832 201.99 30.148 201.438 30.38C200.886 30.612 200.278 30.728 199.614 30.728ZM199.662 30.02C200.07 30.02 200.442 29.924 200.778 29.732C201.122 29.532 201.418 29.264 201.666 28.928C201.914 28.592 202.106 28.2 202.242 27.752C202.386 27.304 202.458 26.824 202.458 26.312C202.458 25.8 202.386 25.32 202.242 24.872C202.098 24.424 201.894 24.032 201.63 23.696C201.374 23.36 201.066 23.096 200.706 22.904C200.354 22.704 199.966 22.604 199.542 22.604C199.134 22.604 198.758 22.704 198.414 22.904C198.07 23.096 197.774 23.36 197.526 23.696C197.278 24.032 197.082 24.424 196.938 24.872C196.802 25.32 196.734 25.8 196.734 26.312C196.734 26.824 196.806 27.304 196.95 27.752C197.094 28.2 197.294 28.592 197.55 28.928C197.814 29.264 198.122 29.532 198.474 29.732C198.834 29.924 199.23 30.02 199.662 30.02ZM205.226 22.7L204.626 22.1H208.286C208.95 22.1 209.562 22.208 210.122 22.424C210.682 22.632 211.166 22.924 211.574 23.3C211.982 23.668 212.298 24.108 212.522 24.62C212.754 25.132 212.87 25.692 212.87 26.3C212.87 26.908 212.754 27.468 212.522 27.98C212.298 28.492 211.982 28.936 211.574 29.312C211.166 29.68 210.682 29.972 210.122 30.188C209.562 30.396 208.95 30.5 208.286 30.5H204.626L205.226 29.9V22.7ZM206.354 29.804H208.046C208.494 29.804 208.91 29.712 209.294 29.528C209.686 29.344 210.022 29.096 210.302 28.784C210.582 28.464 210.802 28.092 210.962 27.668C211.122 27.236 211.202 26.78 211.202 26.3C211.202 25.82 211.122 25.368 210.962 24.944C210.802 24.52 210.582 24.152 210.302 23.84C210.022 23.52 209.686 23.268 209.294 23.084C208.91 22.9 208.494 22.808 208.046 22.808H206.798V29.336L206.354 29.804ZM214.169 27.812L213.569 27.116H214.457L216.329 22.64L215.765 22.1H218.489L217.937 22.64L220.925 29.96L221.453 30.5H218.681L219.233 29.96L218.573 28.22L218.945 27.812H215.105L214.265 29.888L214.853 30.5H212.693L213.269 29.96L214.169 27.812ZM218.141 27.116L216.761 23.684L215.381 27.116H218.141ZM225.54 30.5H222.768L223.368 29.9V27.104L220.428 22.64L219.9 22.1H222.756L222.204 22.64L224.52 26.348L226.872 22.712L226.284 22.1H228.42L227.844 22.64L224.94 27.092V29.9L225.54 30.5Z" fill="white"/>
</g>
<path d="M364 26.5L253.426 26.5" stroke="url(#paint1_linear_2667_13153)"/>
<defs>
<filter id="filter0_d_2667_13153" x="94.8625" y="0.880809" width="175.275" height="54.1386" filterUnits="userSpaceOnUse" color-interpolation-filters="sRGB">
<feFlood flood-opacity="0" result="BackgroundImageFix"/>
<feColorMatrix in="SourceAlpha" type="matrix" values="0 0 0 0 0 0 0 0 0 0 0 0 0 0 0 0 0 0 127 0" result="hardAlpha"/>
<feOffset dy="2.01834"/>
<feGaussianBlur stdDeviation="7.56876"/>
<feComposite in2="hardAlpha" operator="out"/>
<feColorMatrix type="matrix" values="0 0 0 0 0 0 0 0 0 0 0 0 0 0 0 0 0 0 0.3 0"/>
<feBlend mode="normal" in2="BackgroundImageFix" result="effect1_dropShadow_2667_13153"/>
<feBlend mode="normal" in="SourceGraphic" in2="effect1_dropShadow_2667_13153" result="shape"/>
</filter>
<linearGradient id="paint0_linear_2667_13153" x1="1.07088e-09" y1="27.9832" x2="111.868" y2="27.9832" gradientUnits="userSpaceOnUse">
<stop stop-color="#5657FF" stop-opacity="0"/>
<stop offset="0.552079" stop-color="#5657FF"/>
<stop offset="1" stop-color="#5657FF"/>
</linearGradient>
<linearGradient id="paint1_linear_2667_13153" x1="364" y1="25.0168" x2="253.426" y2="25.0168" gradientUnits="userSpaceOnUse">
<stop stop-color="#5657FF" stop-opacity="0"/>
<stop offset="0.552079" stop-color="#5657FF"/>
<stop offset="1" stop-color="#5657FF"/>
</linearGradient>
</defs>
</svg>
